<svg width="28" height="28" viewBox="0 0 28 28" fill="none" xmlns="http://www.w3.org/2000/svg">
<circle cx="14" cy="14" r="13" fill="#1B66FF" stroke="white" stroke-width="2"/>
<path d="M20 20.6667H8C7.72667 20.6667 7.5 20.4401 7.5 20.1667C7.5 19.8934 7.72667 19.6667 8 19.6667H20C20.2733 19.6667 20.5 19.8934 20.5 20.1667C20.5 20.4401 20.2733 20.6667 20 20.6667ZM18.68 8.32141C17.3867 7.02807 16.12 6.99474 14.7933 8.32141L13.9867 9.12807C13.92 9.19474 13.8933 9.30141 13.92 9.39474C14.175 10.2697 14.6465 11.0662 15.2909 11.7106C15.9353 12.3549 16.7317 12.8264 17.6067 13.0814C17.6539 13.0969 17.7045 13.0988 17.7528 13.0871C17.8011 13.0753 17.8452 13.0502 17.88 13.0147L18.68 12.2081C19.34 11.5547 19.66 10.9214 19.66 10.2814C19.6667 9.62141 19.3467 8.98141 18.68 8.32141ZM16.4067 13.6867C16.2133 13.5934 16.0267 13.5001 15.8467 13.3934C15.7005 13.3063 15.5581 13.2129 15.42 13.1134C15.3067 13.0401 15.1733 12.9334 15.0467 12.8267C15.0059 12.797 14.9679 12.7635 14.9333 12.7267C14.7133 12.5401 14.4667 12.3001 14.2467 12.0334C14.2267 12.0201 14.1933 11.9734 14.1467 11.9134C14.08 11.8334 13.9667 11.7001 13.8667 11.5467C13.7716 11.4214 13.6848 11.29 13.6067 11.1534C13.5 10.9734 13.4067 10.7934 13.3133 10.6067C13.2995 10.5769 13.2859 10.5469 13.2727 10.5167C13.174 10.2947 12.884 10.2301 12.7127 10.4014L8.89333 14.2207C8.80667 14.3074 8.72667 14.4741 8.70667 14.5874L8.34667 17.1407C8.28 17.5941 8.40667 18.0207 8.68667 18.3074C8.92667 18.5407 9.26 18.6674 9.62 18.6674C9.7 18.6674 9.78 18.6607 9.86 18.6474L12.42 18.2874C12.54 18.2674 12.7067 18.1874 12.7867 18.1007L16.6013 14.2867C16.7747 14.1134 16.7087 13.8167 16.484 13.7201C16.4582 13.709 16.4324 13.6979 16.4067 13.6867Z" fill="white"/>
</svg>
