<svg width="80" height="80" viewBox="0 0 80 80" fill="none" xmlns="http://www.w3.org/2000/svg">
<g filter="url(#filter0_d_931_3277)">
<rect x="10" y="12" width="52" height="52" rx="8" fill="#DAE6FF"/>
</g>
<path d="M37 29.5C37 29.1022 36.842 28.7206 36.5607 28.4393C36.2794 28.158 35.8978 28 35.5 28C35.1022 28 34.7206 28.158 34.4393 28.4393C34.158 28.7206 34 29.1022 34 29.5V36H27.5C27.1022 36 26.7206 36.158 26.4393 36.4393C26.158 36.7206 26 37.1022 26 37.5C26 37.8978 26.158 38.2794 26.4393 38.5607C26.7206 38.842 27.1022 39 27.5 39H34V45.5C34 45.8978 34.158 46.2794 34.4393 46.5607C34.7206 46.842 35.1022 47 35.5 47C35.8978 47 36.2794 46.842 36.5607 46.5607C36.842 46.2794 37 45.8978 37 45.5V39H43.5C43.8978 39 44.2794 38.842 44.5607 38.5607C44.842 38.2794 45 37.8978 45 37.5C45 37.1022 44.842 36.7206 44.5607 36.4393C44.2794 36.158 43.8978 36 43.5 36H37V29.5Z" fill="#1B66FF"/>
<defs>
<filter id="filter0_d_931_3277" x="0" y="0" width="80" height="80" filterUnits="userSpaceOnUse" color-interpolation-filters="sRGB">
<feFlood flood-opacity="0" result="BackgroundImageFix"/>
<feColorMatrix in="SourceAlpha" type="matrix" values="0 0 0 0 0 0 0 0 0 0 0 0 0 0 0 0 0 0 127 0" result="hardAlpha"/>
<feOffset dx="4" dy="2"/>
<feGaussianBlur stdDeviation="7"/>
<feComposite in2="hardAlpha" operator="out"/>
<feColorMatrix type="matrix" values="0 0 0 0 0 0 0 0 0 0 0 0 0 0 0 0 0 0 0.16 0"/>
<feBlend mode="normal" in2="BackgroundImageFix" result="effect1_dropShadow_931_3277"/>
<feBlend mode="normal" in="SourceGraphic" in2="effect1_dropShadow_931_3277" result="shape"/>
</filter>
</defs>
</svg>
