<svg width="52" height="45" viewBox="0 0 52 45" fill="none" xmlns="http://www.w3.org/2000/svg">
<g opacity="0.4">
<path d="M32.9835 3.33325H19.0168C12.9502 3.33325 9.3335 6.94992 9.3335 13.0166V26.9666C9.3335 33.0499 12.9502 36.6666 19.0168 36.6666H32.9668C39.0335 36.6666 42.6502 33.0499 42.6502 26.9833V13.0166C42.6668 6.94992 39.0502 3.33325 32.9835 3.33325Z" fill="#CDCDCD"/>
<path d="M32.9835 3.33325H19.0168C12.9502 3.33325 9.3335 6.94992 9.3335 13.0166V26.9666C9.3335 33.0499 12.9502 36.6666 19.0168 36.6666H32.9668C39.0335 36.6666 42.6502 33.0499 42.6502 26.9833V13.0166C42.6668 6.94992 39.0502 3.33325 32.9835 3.33325Z" stroke="#E8E8E8"/>
</g>
<path d="M32.6668 18.7499H27.2502V13.3333C27.2502 12.6499 26.6835 12.0833 26.0002 12.0833C25.3168 12.0833 24.7502 12.6499 24.7502 13.3333V18.7499H19.3335C18.6502 18.7499 18.0835 19.3166 18.0835 19.9999C18.0835 20.6833 18.6502 21.2499 19.3335 21.2499H24.7502V26.6666C24.7502 27.3499 25.3168 27.9166 26.0002 27.9166C26.6835 27.9166 27.2502 27.3499 27.2502 26.6666V21.2499H32.6668C33.3502 21.2499 33.9168 20.6833 33.9168 19.9999C33.9168 19.3166 33.3502 18.7499 32.6668 18.7499Z" fill="#8E8E8E"/>
</svg>
