<svg width="24" height="24" viewBox="0 0 24 24" fill="none" xmlns="http://www.w3.org/2000/svg">
<path d="M3 4V18C3 18.5304 3.21071 19.0391 3.58579 19.4142C3.96086 19.7893 4.46957 20 5 20H19C19.5304 20 20.0391 19.7893 20.4142 19.4142C20.7893 19.0391 21 18.5304 21 18V9C21 8.44772 20.5523 8 20 8H17" stroke="#666666" stroke-width="1.5" stroke-linecap="round" stroke-linejoin="round"/>
<path d="M3 4H16C16.5523 4 17 4.44772 17 5V18C17 18.5304 17.2107 19.0391 17.5858 19.4142C17.9609 19.7893 18.4696 20 19 20" stroke="#666666" stroke-width="1.5" stroke-linecap="round" stroke-linejoin="round"/>
<path opacity="0.34" d="M7 8.5H14M9 11.5H14" stroke="#666666" stroke-linecap="round"/>
</svg>
